<svg width="876" height="930" viewBox="0 0 876 930" fill="none" xmlns="http://www.w3.org/2000/svg">
<path fill-rule="evenodd" clip-rule="evenodd" d="M0.629883 0.76001C138.09 0.76001 275.6 0.76001 413.06 0.76001C413.06 37.55 413.06 74.35 413.06 111.13C275.6 111.13 138.09 111.13 0.629883 111.13C0.629883 74.34 0.629883 37.54 0.629883 0.76001Z" fill="#104A92"/>
<path fill-rule="evenodd" clip-rule="evenodd" d="M462.66 0.76001C512.21 0.76001 561.77 0.76001 611.31 0.76001C662.39 92.5 713.49 184.26 764.57 275.99C764.62 184.25 764.66 92.49 764.71 0.76001C801.59 0.76001 838.48 0.76001 875.36 0.76001C875.36 161.18 875.36 321.65 875.36 482.07C836.52 482.07 797.68 482.07 758.84 482.07C697.05 370.36 635.23 258.61 573.44 146.9C573.39 258.61 573.35 370.36 573.3 482.07C536.42 482.07 499.53 482.07 462.65 482.07C462.66 321.65 462.66 161.18 462.66 0.76001Z" fill="#104A92"/>
<path fill-rule="evenodd" clip-rule="evenodd" d="M0.629883 186.01C138.09 186.01 275.6 186.01 413.06 186.01C413.06 222.8 413.06 259.6 413.06 296.38C275.6 296.38 138.09 296.38 0.629883 296.38C0.629883 259.6 0.629883 222.8 0.629883 186.01Z" fill="#104A92"/>
<path fill-rule="evenodd" clip-rule="evenodd" d="M0.629883 371.27C138.09 371.27 275.6 371.27 413.06 371.27C413.06 408.06 413.06 444.86 413.06 481.64C275.6 481.64 138.09 481.64 0.629883 481.64C0.629883 444.86 0.629883 408.06 0.629883 371.27Z" fill="#104A92"/>
<path fill-rule="evenodd" clip-rule="evenodd" d="M351.45 596.77C351.45 592.49 351.45 588.2 351.45 583.92C373.57 583.92 395.69 583.92 417.81 583.92C417.81 610.42 417.81 636.92 417.81 663.42C414.22 663.42 410.64 663.42 407.05 663.42C406.4 653.97 405.75 644.51 405.09 635.06C405 635.06 404.9 635.06 404.81 635.06C400.45 641.75 397.24 648.1 391.26 653.08C381.21 661.44 368.33 666.63 349.91 666.63C299.19 666.63 267.01 620.03 278.8 564.78C284.63 537.46 299.23 517.62 323.23 508.48C366.96 491.82 411.39 517.38 415.86 555.7C415.86 555.75 415.86 555.79 415.86 555.84C410.83 555.7 405.8 555.56 400.77 555.42C399.45 527.38 360.2 508.54 329.52 520.21C303.75 530.01 286.23 561.01 292.78 599.29C295.92 617.67 302.96 632.69 314.99 642.18C353.05 672.2 404.96 646.15 404.69 596.91C404.64 596.86 404.6 596.82 404.55 596.77C386.84 596.77 369.14 596.77 351.45 596.77Z" fill="#E73239"/>
<path fill-rule="evenodd" clip-rule="evenodd" d="M721.27 552.62C716.29 552.62 711.3 552.62 706.32 552.62C704.59 505.12 618.95 504.96 624.59 550.11C629.09 586.17 712.64 567.03 725.18 610.61C727.98 620.32 726.24 632.53 722.8 640.23C708.28 672.84 638.5 675.59 615.64 648.47C608.21 639.66 604.14 628.28 604.6 611.87C609.58 611.87 614.57 611.87 619.55 611.87C619.42 624.25 622.38 632.89 627.93 639.53C647.58 663.03 707.55 658.67 711.76 623.88C716.84 581.87 621.02 600.77 610.75 557.8C608.62 548.91 610.06 538.21 612.99 531.25C631.41 487.4 721.64 496.47 721.27 552.62Z" fill="#E73239"/>
<path fill-rule="evenodd" clip-rule="evenodd" d="M0.629883 507.07C36.5799 507.07 72.5399 507.07 108.49 507.07C108.49 511.35 108.49 515.64 108.49 519.92C77.5199 519.92 46.5499 519.92 15.5799 519.92C15.5799 538.69 15.5799 557.46 15.5799 576.22C44.5899 576.22 73.6099 576.22 102.62 576.22C102.62 580.5 102.62 584.79 102.62 589.07C73.6099 589.07 44.5899 589.07 15.5799 589.07C15.5799 609.61 15.5799 630.15 15.5799 650.68C46.9199 650.68 78.2699 650.68 109.61 650.68C109.61 654.92 109.61 659.16 109.61 663.39C73.2899 663.39 36.9599 663.39 0.629883 663.39C0.629883 611.3 0.629883 559.18 0.629883 507.07Z" fill="#E73239"/>
<path fill-rule="evenodd" clip-rule="evenodd" d="M130 507.07C135.63 507.16 141.27 507.26 146.91 507.35C177.22 551.31 207.55 595.28 237.86 639.24C237.95 639.24 238.05 639.24 238.14 639.24C238.14 595.24 238.14 551.22 238.14 507.21C243.12 507.21 248.11 507.21 253.09 507.21C253.09 559.27 253.09 611.35 253.09 663.41C247.5 663.41 241.91 663.41 236.32 663.41C205.96 619.36 175.59 575.29 145.23 531.24C145.14 531.24 145.04 531.24 144.95 531.24C144.95 575.29 144.95 619.36 144.95 663.41C139.97 663.41 134.98 663.41 130 663.41C130 611.3 130 559.18 130 507.07Z" fill="#E73239"/>
<path fill-rule="evenodd" clip-rule="evenodd" d="M446.45 507.07C451.39 507.07 456.32 507.07 461.26 507.07C461.26 554.94 461.26 602.82 461.26 650.69C490.46 650.69 519.66 650.69 548.86 650.69C548.86 654.93 548.86 659.17 548.86 663.4C514.73 663.4 480.58 663.4 446.45 663.4C446.45 611.3 446.45 559.18 446.45 507.07Z" fill="#E73239"/>
<path fill-rule="evenodd" clip-rule="evenodd" d="M564.93 507.07C569.91 507.07 574.9 507.07 579.88 507.07C579.88 559.18 579.88 611.3 579.88 663.41C574.9 663.41 569.91 663.41 564.93 663.41C564.93 611.3 564.93 559.18 564.93 507.07Z" fill="#E73239"/>
<path fill-rule="evenodd" clip-rule="evenodd" d="M750.19 507.07C755.17 507.07 760.16 507.07 765.14 507.07C765.14 529.65 765.14 552.25 765.14 574.83C796.01 574.83 826.9 574.83 857.77 574.83C857.77 552.25 857.77 529.65 857.77 507.07C862.75 507.07 867.74 507.07 872.72 507.07C872.72 559.18 872.72 611.3 872.72 663.41C867.74 663.41 862.75 663.41 857.77 663.41C857.77 638.17 857.77 612.92 857.77 587.69C826.9 587.69 796.01 587.69 765.14 587.69C765.14 612.93 765.14 638.18 765.14 663.41C760.16 663.41 755.17 663.41 750.19 663.41C750.19 611.3 750.19 559.18 750.19 507.07Z" fill="#E73239"/>
<path fill-rule="evenodd" clip-rule="evenodd" d="M403.99 711.62C392.06 701.91 376.83 695.87 354.95 696.12C347.61 697.84 340.68 697.4 334.4 699.32C311.28 706.37 295.56 723.67 288.44 746.69C271.19 802.51 303.13 865.52 362.08 858.87C379.4 856.92 391.63 853 402.32 844.77C439.47 816.16 440.98 741.68 403.99 711.62ZM393.37 834.27C385.11 840.9 375.45 844.47 361.92 846.02C313.05 851.61 288.51 797.37 302.41 751.56C308.25 732.31 320.23 717.33 339.45 711.46C344.5 710.62 349.6 709.78 354.66 708.95C371.81 708.85 383.47 712.97 392.96 720.41C423.65 744.52 423.9 809.8 393.37 834.27ZM370.72 756.17C367.15 753.39 362.76 751.83 356.33 751.88C354.43 752.18 352.53 752.5 350.61 752.82C343.39 755.01 338.9 760.66 336.71 767.88C331.49 785.08 340.7 805.46 359.06 803.34C364.14 802.77 367.76 801.42 370.86 798.93C382.32 789.74 382.25 765.22 370.72 756.17Z" fill="#E73239"/>
<path fill-rule="evenodd" clip-rule="evenodd" d="M159.06 699.32C196.55 699.32 234.04 699.32 271.53 699.32C271.53 703.79 271.53 708.26 271.53 712.73C263.47 722.88 255.42 733.04 247.36 743.19C221.24 776.34 195.1 809.51 168.98 842.67C203.9 842.72 238.84 842.76 273.76 842.81C273.76 847.09 273.76 851.38 273.76 855.66C233.2 855.66 192.63 855.66 152.07 855.66C152.07 851.24 152.07 846.81 152.07 842.39C160.78 831.4 169.49 820.41 178.2 809.42C203.67 777.01 229.15 744.59 254.62 712.18C222.77 712.18 190.91 712.18 159.06 712.18C159.06 707.89 159.06 703.6 159.06 699.32Z" fill="#E73239"/>
<path fill-rule="evenodd" clip-rule="evenodd" d="M454.14 699.32C459.68 699.32 465.22 699.32 470.77 699.32C501.18 743.37 531.59 787.44 562 831.49C562.09 787.44 562.19 743.37 562.28 699.32C567.26 699.32 572.25 699.32 577.23 699.32C577.23 751.43 577.23 803.55 577.23 855.66C571.64 855.66 566.05 855.66 560.46 855.66C530.05 811.61 499.64 767.54 469.23 723.49C469.18 767.54 469.14 811.61 469.09 855.66C464.11 855.66 459.12 855.66 454.14 855.66C454.14 803.55 454.14 751.43 454.14 699.32Z" fill="#E73239"/>
<path fill-rule="evenodd" clip-rule="evenodd" d="M608.38 699.32C644.33 699.32 680.29 699.32 716.24 699.32C716.24 703.6 716.24 707.89 716.24 712.17C685.27 712.17 654.3 712.17 623.33 712.17C623.33 730.94 623.33 749.71 623.33 768.47C652.34 768.47 681.36 768.47 710.37 768.47C710.37 772.75 710.37 777.04 710.37 781.32C681.36 781.32 652.34 781.32 623.33 781.32C623.33 801.81 623.33 822.3 623.33 842.79C654.67 842.79 686.02 842.79 717.36 842.79C717.36 847.07 717.36 851.36 717.36 855.64C681.04 855.64 644.71 855.64 608.38 855.64C608.38 803.55 608.38 751.43 608.38 699.32Z" fill="#E73239"/>
<path fill-rule="evenodd" clip-rule="evenodd" d="M370.72 756.17C367.15 753.39 362.76 751.83 356.33 751.88C354.43 752.18 352.53 752.5 350.61 752.82C343.39 755.01 338.9 760.66 336.71 767.88C331.49 785.08 340.7 805.46 359.06 803.34C364.14 802.77 367.76 801.42 370.86 798.93C382.32 789.74 382.25 765.22 370.72 756.17Z" fill="white"/>
<path fill-rule="evenodd" clip-rule="evenodd" d="M273.21 910.98C274.89 910.98 276.56 910.98 278.24 910.98C275.92 927.1 305.06 929.05 307.86 916.15C311.6 898.9 271.71 909.78 274.89 888.49C277.63 870.09 309.39 871.75 311.22 891.7C309.54 891.7 307.87 891.7 306.19 891.7C305.04 875.74 277.12 876.59 279.92 891.56C282.23 903.87 323.28 896.09 311.63 920.48C304.82 934.74 272.95 931.61 273.21 910.98Z" fill="#878787"/>
<path fill-rule="evenodd" clip-rule="evenodd" d="M150.96 876.89C152.59 876.89 154.22 876.89 155.85 876.89C155.85 893.79 155.85 910.7 155.85 927.61C154.22 927.61 152.59 927.61 150.96 927.61C150.96 910.71 150.96 893.8 150.96 876.89Z" fill="#878787"/>
<path fill-rule="evenodd" clip-rule="evenodd" d="M195.95 876.89C197.81 876.89 199.68 876.89 201.54 876.89C211.32 891.09 221.1 905.3 230.88 919.5C230.88 905.3 230.88 891.09 230.88 876.89C232.56 876.89 234.23 876.89 235.91 876.89C235.91 893.79 235.91 910.7 235.91 927.61C234.05 927.61 232.18 927.61 230.32 927.61C220.54 913.41 210.76 899.2 200.98 885C200.98 899.2 200.98 913.41 200.98 927.61C199.3 927.61 197.63 927.61 195.95 927.61C195.95 910.71 195.95 893.8 195.95 876.89Z" fill="#878787"/>
<path fill-rule="evenodd" clip-rule="evenodd" d="M419.77 876.89C421.45 876.89 423.12 876.89 424.8 876.89C424.8 893.79 424.8 910.7 424.8 927.61C423.12 927.61 421.45 927.61 419.77 927.61C419.77 910.71 419.77 893.8 419.77 876.89Z" fill="#878787"/>
<path fill-rule="evenodd" clip-rule="evenodd" d="M533.63 876.89C535.31 876.89 536.98 876.89 538.66 876.89C538.48 895.91 533.68 922.35 551.09 924.53C574.12 927.42 568.31 896.68 568.13 876.89C569.81 876.89 571.48 876.89 573.16 876.89C573.37 901.09 578.48 932.05 550.95 928.72C528.83 926.05 533.45 901.08 533.63 876.89Z" fill="#878787"/>
<path fill-rule="evenodd" clip-rule="evenodd" d="M344.74 877.03C358.2 877.03 371.66 877.03 385.12 877.03C385.12 878.43 385.12 879.82 385.12 881.22C379.21 881.22 373.29 881.22 367.38 881.22C367.38 896.68 367.38 912.14 367.38 927.6C365.75 927.6 364.12 927.6 362.49 927.6C362.49 912.14 362.49 896.68 362.49 881.22C356.58 881.22 350.66 881.22 344.75 881.22C344.74 879.83 344.74 878.43 344.74 877.03Z" fill="#878787"/>
<path fill-rule="evenodd" clip-rule="evenodd" d="M459.45 877.03C472.91 877.03 486.37 877.03 499.83 877.03C499.83 878.43 499.83 879.82 499.83 881.22C493.92 881.22 488 881.22 482.09 881.22C482.09 896.68 482.09 912.14 482.09 927.6C480.46 927.6 478.83 927.6 477.2 927.6C477.2 912.14 477.2 896.68 477.2 881.22C471.29 881.22 465.37 881.22 459.46 881.22C459.45 879.83 459.45 878.43 459.45 877.03Z" fill="#878787"/>
<path fill-rule="evenodd" clip-rule="evenodd" d="M606.98 877.03C620.44 877.03 633.9 877.03 647.36 877.03C647.36 878.43 647.36 879.82 647.36 881.22C641.45 881.22 635.53 881.22 629.62 881.22C629.62 896.68 629.62 912.14 629.62 927.6C627.99 927.6 626.36 927.6 624.73 927.6C624.73 912.14 624.73 896.68 624.73 881.22C618.82 881.22 612.9 881.22 606.99 881.22C606.98 879.83 606.98 878.43 606.98 877.03Z" fill="#878787"/>
<path fill-rule="evenodd" clip-rule="evenodd" d="M681.59 877.03C693.28 877.03 704.97 877.03 716.66 877.03C716.66 878.43 716.66 879.82 716.66 881.22C706.65 881.22 696.63 881.22 686.62 881.22C686.62 887.23 686.62 893.24 686.62 899.24C695.98 899.24 705.34 899.24 714.7 899.24C714.7 900.64 714.7 902.03 714.7 903.43C705.34 903.43 695.98 903.43 686.62 903.43C686.62 910.09 686.62 916.75 686.62 923.41C696.77 923.41 706.93 923.41 717.08 923.41C717.08 924.81 717.08 926.2 717.08 927.6C705.25 927.6 693.42 927.6 681.59 927.6C681.59 910.75 681.59 893.89 681.59 877.03Z" fill="#878787"/>
<path fill-rule="evenodd" clip-rule="evenodd" d="M370.72 756.17C367.15 753.39 362.76 751.83 356.33 751.88C354.43 752.18 352.53 752.5 350.61 752.82C343.39 755.01 338.9 760.66 336.71 767.88C331.49 785.08 340.7 805.46 359.06 803.34C364.14 802.77 367.76 801.42 370.86 798.93C382.32 789.74 382.25 765.22 370.72 756.17Z" fill="#E73239"/>
</svg>
