<svg width="930" height="355" viewBox="0 0 930 355" fill="none" xmlns="http://www.w3.org/2000/svg">
<path d="M286.128 317.572C327.916 285.114 354.831 234.418 354.831 177.415C354.831 120.774 328.258 70.3696 286.932 37.8913L129.702 173.71L286.128 317.572Z" fill="#013878"/>
<path d="M96.9326 161.186L259.937 20.3667C235.282 7.38143 207.212 0 177.415 0C148.432 0 121.096 6.9998 96.9326 19.3223V161.186Z" fill="#023876"/>
<path d="M96.9326 185.56V335.509C121.096 347.831 148.432 354.831 177.415 354.831C206.931 354.831 234.749 347.58 259.234 334.826L96.9326 185.56Z" fill="#E4AB20"/>
<path d="M66.0312 39.3576C25.7697 71.8861 0 121.628 0 177.415C0 233.203 25.7697 282.945 66.0312 315.473V39.3576Z" fill="#2D8ED0"/>
<path d="M452.979 150.772L416.835 110.179L415.409 108.201H415.188V150.762H409.092V65.6897H415.188V105.78H415.409C415.921 104.907 416.433 104.184 416.945 103.641L451.271 65.6897H459.125L421.886 106.935L461.435 150.762H452.979V150.772Z" fill="#2D8ED0"/>
<path d="M479.562 150.772H473.466V65.6998H479.562V150.772Z" fill="#2D8ED0"/>
<path d="M545.252 150.772L533.723 125.896C531.603 121.176 529.404 117.842 527.134 115.904C524.865 113.965 521.812 112.991 517.965 112.991H507.531V150.782H501.435V65.7098H525.166C532.447 65.7098 538.302 67.7284 542.711 71.7757C547.12 75.8229 549.329 81.1958 549.329 87.8943C549.329 94.0806 547.531 99.2226 543.946 103.33C540.351 107.427 535.49 110.049 529.334 111.183V111.404C532.809 112.83 536.163 116.948 539.387 123.757L552.181 150.782H545.252V150.772ZM507.521 71.2936V107.438H522.133C528.47 107.438 533.542 105.73 537.348 102.326C541.154 98.9213 543.062 94.3116 543.062 88.4868C543.062 83.1039 541.365 78.896 537.961 75.853C534.556 72.8101 529.665 71.2936 523.298 71.2936H507.521Z" fill="#2D8ED0"/>
<path d="M613.021 150.772L576.877 110.179L575.451 108.201H575.23V150.762H569.134V65.6897H575.23V105.78H575.451C575.963 104.907 576.475 104.184 576.987 103.641L611.313 65.6897H619.167L581.928 106.935L621.477 150.762H613.021V150.772Z" fill="#2D8ED0"/>
<path d="M691.675 116.767C691.675 140.418 681.552 152.248 661.306 152.248C642.044 152.248 632.413 140.86 632.413 118.083V65.6897H638.449V117.259C638.449 136.853 646.453 146.644 662.451 146.644C677.907 146.644 685.63 137.124 685.63 118.083V65.6897H691.665V116.767H691.675Z" fill="#2D8ED0"/>
<path d="M756.32 150.772L720.177 110.179L718.75 108.201H718.53V150.762H712.434V65.6897H718.53V105.78H718.75C719.263 104.907 719.775 104.184 720.287 103.641L754.613 65.6897H762.467L725.228 106.935L764.776 150.762H756.32V150.772Z" fill="#2D8ED0"/>
<path d="M402.815 295.498C413.069 302.167 423.604 305.511 434.42 305.511C445.668 305.511 454.164 303.241 459.909 298.702C465.653 294.163 468.525 287.414 468.525 278.456C468.525 274.258 467.742 270.582 466.165 267.429C464.588 264.275 462.168 261.262 458.894 258.39C455.62 255.518 448.359 250.748 437.111 244.069C426.667 237.893 419.507 233.022 415.61 229.467C411.713 225.912 408.751 222.025 406.712 217.787C404.673 213.559 403.649 208.659 403.649 203.095C403.649 196.175 405.487 189.909 409.162 184.285C412.838 178.661 418.01 174.292 424.689 171.169C431.357 168.046 438.899 166.489 447.305 166.489C456.323 166.489 464.95 167.945 473.165 170.848V181.784C464.759 177.827 455.711 175.849 446.009 175.849C436.429 175.849 428.736 178.259 422.931 183.08C417.126 187.9 414.224 194.167 414.224 201.89C414.224 207.022 415.027 211.139 416.634 214.262C418.241 217.386 420.973 220.509 424.839 223.622C428.696 226.746 435.545 231.144 445.367 236.828C454.265 241.9 461.094 246.47 465.854 250.547C470.614 254.624 474.009 258.722 476.047 262.829C478.086 266.937 479.11 271.838 479.11 277.522C479.11 289.081 475.113 298.21 467.109 304.908C459.105 311.617 448.369 314.961 434.902 314.961C429.961 314.961 424.166 314.158 417.528 312.551C410.89 310.944 405.989 309.217 402.836 307.359V295.498H402.815Z" fill="#013878"/>
<path d="M520.065 255.096V312.471H509.781V168.899H544.72C559.553 168.899 570.851 172.314 578.644 179.143C586.427 185.972 590.324 196.025 590.324 209.311C590.324 218.39 588.305 226.414 584.258 233.364C580.211 240.313 574.406 245.676 566.834 249.442C559.261 253.208 550.504 255.096 540.552 255.096H520.065ZM520.065 178.349V245.726H540.271C553.125 245.726 562.917 242.653 569.646 236.507C576.374 230.361 579.749 221.664 579.749 210.416C579.749 189.035 567.426 178.349 542.771 178.349H520.065Z" fill="#013878"/>
<path d="M699.037 312.46L682.637 267.971H620.542L604.233 312.46H592.925L647.146 168.889H656.968L710.536 312.46H699.037ZM651.856 181.784H651.394C650.279 186.112 649.194 189.627 648.15 192.349L624.148 258.621H679.202L655.009 192.54L651.856 181.784Z" fill="#013878"/>
<path d="M827.494 307.64C816.065 312.521 803.923 314.961 791.069 314.961C778.033 314.961 766.444 311.968 756.311 305.973C746.177 299.977 738.334 291.531 732.77 280.625C727.207 269.719 724.425 257.376 724.425 243.597C724.425 228.955 727.418 215.719 733.413 203.878C739.409 192.048 747.855 182.859 758.761 176.301C769.667 169.753 782.01 166.479 795.789 166.479C806.906 166.479 817.481 168.277 827.484 171.852V182.698C817.29 178.129 806.665 175.839 795.598 175.839C783.547 175.839 772.921 178.631 763.712 184.224C754.503 189.818 747.413 197.692 742.442 207.855C737.47 218.018 734.98 229.588 734.98 242.563C734.98 254.925 737.34 265.902 742.07 275.513C746.8 285.124 753.499 292.516 762.186 297.708C770.863 302.9 780.765 305.491 791.892 305.491C805.118 305.491 816.979 302.9 827.484 297.708V307.64H827.494Z" fill="#013878"/>
<path d="M859.379 312.46V168.899H926.756V178.349H869.663V235.352H922.589V244.712H869.663V303.191H930V312.46H859.379Z" fill="#013878"/>
</svg>
