<svg width="946" height="946" viewBox="0 0 946 946" fill="none" xmlns="http://www.w3.org/2000/svg">
<path d="M762.42 846.22C873.77 759.73 945.5 624.66 945.5 472.75C945.5 321.82 874.68 187.51 764.56 100.96L345.6 462.88L762.42 846.22Z" fill="#013878"/>
<path d="M258.29 429.5L692.65 54.27C626.94 19.67 552.16 0 472.75 0C395.51 0 322.67 18.64 258.29 51.49V429.5Z" fill="#023876"/>
<path d="M258.29 494.45V894.01C322.68 926.86 395.52 945.5 472.75 945.5C551.41 945.5 625.52 926.18 690.77 892.19L258.29 494.45Z" fill="#E4AB20"/>
<path d="M175.94 104.88C68.67 191.55 0 324.1 0 472.75C0 621.4 68.67 753.95 175.94 840.62V104.88Z" fill="#2D8ED0"/>
</svg>
